<svg width="38" height="37" viewBox="0 0 38 37" fill="none" xmlns="http://www.w3.org/2000/svg">
<path fill-rule="evenodd" clip-rule="evenodd" d="M19.1946 14.2712H19.1379C16.8261 14.2712 14.9092 16.1883 14.9092 18.5004C14.9092 20.8124 16.8261 22.7855 19.1379 22.7855H19.1946C21.5064 22.7855 23.4233 20.8684 23.4233 18.5004C23.4233 16.1324 21.5064 14.2712 19.1946 14.2712Z" fill="white"/>
<path fill-rule="evenodd" clip-rule="evenodd" d="M24.5504 8.74548H13.7821C11.3575 8.74548 9.3847 10.7194 9.3847 13.1433V23.8568C9.3847 26.2816 11.3584 28.2546 13.7821 28.2546H24.5504C26.9749 28.2546 28.9478 26.2808 28.9478 23.8568V13.1433C28.9478 10.7185 26.9741 8.74548 24.5504 8.74548ZM19.1946 24.9281H19.1378C15.6422 24.9281 12.7668 22.0524 12.7668 18.4996C12.7668 14.9468 15.6422 12.0712 19.1378 12.0712H19.1946C22.6903 12.0712 25.6224 15.0036 25.6224 18.4996C25.6224 21.9957 22.6903 24.9281 19.1946 24.9281ZM25.5097 13.5382C24.7207 13.5382 24.1563 12.9178 24.1563 12.1847C24.1563 11.4516 24.7199 10.8313 25.5097 10.8313C26.2427 10.8313 26.863 11.4516 26.863 12.1847C26.863 12.9178 26.2427 13.5382 25.5097 13.5382Z" fill="white"/>
<path fill-rule="evenodd" clip-rule="evenodd" d="M19.1658 0C8.94951 0 0.667358 8.28302 0.667358 18.5004C0.667358 28.7178 8.94951 37.0008 19.1658 37.0008C29.3822 37.0008 37.6643 28.7178 37.6643 18.5004C37.6643 8.28302 29.3822 0 19.1658 0ZM30.9774 23.9135C30.9774 27.4096 28.102 30.2852 24.6064 30.2852H13.7245C10.2288 30.2852 7.35346 27.4096 7.35346 23.9135V13.0873C7.35346 9.59125 10.2288 6.7156 13.7245 6.7156H24.6064C28.102 6.7156 30.9774 9.59125 30.9774 13.0873V23.9135Z" fill="white"/>
</svg>
