<svg width="37" height="37" viewBox="0 0 37 37" fill="none" xmlns="http://www.w3.org/2000/svg">
<path fill-rule="evenodd" clip-rule="evenodd" d="M18.4985 0C8.28215 0 0 8.28302 0 18.5004C0 28.7178 8.28215 37.0008 18.4985 37.0008C28.7148 37.0008 36.997 28.7178 36.997 18.5004C36.997 8.28302 28.7148 0 18.4985 0ZM12.3759 28.777H8.20975V14.7863H12.3759V28.777ZM10.2673 12.7294C8.87861 12.7294 7.7984 11.598 7.7984 10.2092C7.7984 8.8203 8.87861 7.68896 10.2673 7.68896C11.6561 7.68896 12.7873 8.8203 12.7873 10.2092C12.7873 11.598 11.6561 12.7294 10.2673 12.7294ZM28.7823 21.4732V28.777H24.6679V21.2156C24.6161 19.6211 23.5367 18.3869 21.9423 18.3869C20.3479 18.3869 19.011 19.6211 18.9592 21.2156V28.777H14.8449V14.7863H18.9592V16.7413C19.8337 15.4553 21.2735 14.6325 22.9197 14.6325H24.0509C26.6737 14.6325 28.7823 16.7931 28.7823 19.3643V21.4732Z" fill="white"/>
</svg>
