<svg width="37" height="37" viewBox="0 0 37 37" fill="none" xmlns="http://www.w3.org/2000/svg">
<path fill-rule="evenodd" clip-rule="evenodd" d="M18.5024 0C8.28606 0 0.00390625 8.28302 0.00390625 18.5004C0.00390625 28.7178 8.28606 37.0008 18.5024 37.0008C28.7187 37.0008 37.0009 28.7178 37.0009 18.5004C37.0009 8.28302 28.7187 0 18.5024 0ZM28.0638 13.9356C28.8536 24.9346 17.0051 31.619 7.40494 26.1499C7.40494 26.1499 12.1445 26.3926 14.1495 24.0839C14.1495 24.0839 11.233 24.3266 9.77433 20.8026C9.77433 20.8026 10.8677 21.228 11.9619 20.6808C11.9619 20.6808 8.55919 20.1336 8.25561 16.0625C8.25561 16.0625 9.34899 16.9133 10.5649 16.6096C10.5649 16.6096 6.79778 14.361 8.92447 10.2898C8.92447 10.2898 12.9351 15.3944 18.7072 15.2117C17.7957 10.4108 23.5678 7.55485 26.9705 11.0188C26.9705 11.0188 28.4892 10.5934 29.8261 9.74265C29.8261 9.74265 29.3399 11.3833 27.6994 12.4167C27.6994 12.4167 29.5225 12.174 30.3123 11.6877C30.3123 11.6877 29.5225 13.3284 28.0638 13.9364V13.9356Z" fill="white"/>
</svg>
