<svg width="51" height="47" viewBox="0 0 51 47" fill="none" xmlns="http://www.w3.org/2000/svg">
<path d="M13.7169 37.2083L4.25 44.0625V7.83333C4.25 7.31395 4.47388 6.81584 4.8724 6.44858C5.27091 6.08132 5.81141 5.875 6.375 5.875H44.625C45.1886 5.875 45.7291 6.08132 46.1276 6.44858C46.5261 6.81584 46.75 7.31395 46.75 7.83333V35.25C46.75 35.7694 46.5261 36.2675 46.1276 36.6348C45.7291 37.002 45.1886 37.2083 44.625 37.2083H13.7169ZM14.875 19.5833V23.5H19.125V19.5833H14.875ZM23.375 19.5833V23.5H27.625V19.5833H23.375ZM31.875 19.5833V23.5H36.125V19.5833H31.875Z" fill="white"/>
</svg>
