<svg width="25" height="25" viewBox="0 0 25 25" fill="none" xmlns="http://www.w3.org/2000/svg">
<g clip-path="url(#clip0_141_492)">
<path d="M10.4167 7.29171C10.4165 8.74029 10.8478 10.1561 11.6555 11.3586C12.4632 12.5611 13.6108 13.4957 14.9519 14.0433C16.293 14.591 17.7668 14.7267 19.1853 14.4333C20.6039 14.1399 21.9029 13.4306 22.9167 12.3959V12.5C22.9167 18.2532 18.2532 22.9167 12.5 22.9167C6.74692 22.9167 2.08337 18.2532 2.08337 12.5C2.08337 6.74692 6.74692 2.08337 12.5 2.08337H12.6042C11.9105 2.76163 11.3596 3.57188 10.9839 4.46638C10.6082 5.36087 10.4153 6.32152 10.4167 7.29171ZM4.16671 12.5C4.16595 14.3594 4.78705 16.1656 5.93118 17.6313C7.07531 19.0969 8.67674 20.1378 10.4807 20.5884C12.2846 21.039 14.1874 20.8733 15.8863 20.1177C17.5853 19.3622 18.9827 18.0601 19.8563 16.4188C18.3015 16.7851 16.679 16.748 15.1426 16.3112C13.6061 15.8744 12.2068 15.0522 11.0773 13.9227C9.94787 12.7933 9.12571 11.3939 8.68888 9.85752C8.25204 8.3211 8.215 6.69854 8.58129 5.14379C7.24752 5.85435 6.13211 6.91427 5.35447 8.21009C4.57684 9.5059 4.16627 10.9888 4.16671 12.5Z" fill="#00A3FF"/>
</g>
<defs>
<clipPath id="clip0_141_492">
<rect width="25" height="25" fill="white"/>
</clipPath>
</defs>
</svg>
