<svg width="31" height="31" viewBox="0 0 31 31" fill="none" xmlns="http://www.w3.org/2000/svg">
<g clip-path="url(#clip0_1_61)">
<path d="M14.2083 2.58331C20.6253 2.58331 25.8333 7.79131 25.8333 14.2083C25.8333 20.6253 20.6253 25.8333 14.2083 25.8333C7.79131 25.8333 2.58331 20.6253 2.58331 14.2083C2.58331 7.79131 7.79131 2.58331 14.2083 2.58331ZM14.2083 23.25C19.2032 23.25 23.25 19.2032 23.25 14.2083C23.25 9.21215 19.2032 5.16665 14.2083 5.16665C9.21215 5.16665 5.16665 9.21215 5.16665 14.2083C5.16665 19.2032 9.21215 23.25 14.2083 23.25ZM25.1681 23.3417L28.8222 26.9945L26.9945 28.8222L23.3417 25.1681L25.1681 23.3417Z" fill="white"/>
</g>
<defs>
<clipPath id="clip0_1_61">
<rect width="31" height="31" fill="white"/>
</clipPath>
</defs>
</svg>
