<svg width="480" height="290" viewBox="0 0 480 290" fill="none" xmlns="http://www.w3.org/2000/svg">
<path d="M120.6 289.8C97.6667 289.8 77.1333 284.2 59 273C40.8667 261.533 26.6 245 16.2 223.4C5.8 201.8 0.6 175.667 0.6 145C0.6 114.333 5.8 88.2 16.2 66.6C26.6 45 40.8667 28.6 59 17.4C77.1333 5.93333 97.6667 0.199995 120.6 0.199995C143.8 0.199995 164.333 5.93333 182.2 17.4C200.333 28.6 214.6 45 225 66.6C235.4 88.2 240.6 114.333 240.6 145C240.6 175.667 235.4 201.8 225 223.4C214.6 245 200.333 261.533 182.2 273C164.333 284.2 143.8 289.8 120.6 289.8ZM120.6 235C131.533 235 141 231.933 149 225.8C157.267 219.667 163.667 209.933 168.2 196.6C173 183.267 175.4 166.067 175.4 145C175.4 123.933 173 106.733 168.2 93.4C163.667 80.0667 157.267 70.3333 149 64.2C141 58.0666 131.533 55 120.6 55C109.933 55 100.467 58.0666 92.2 64.2C84.2 70.3333 77.8 80.0667 73 93.4C68.4667 106.733 66.2 123.933 66.2 145C66.2 166.067 68.4667 183.267 73 196.6C77.8 209.933 84.2 219.667 92.2 225.8C100.467 231.933 109.933 235 120.6 235ZM268.122 285V243L376.122 141C384.655 133.267 390.922 126.333 394.922 120.2C398.922 114.067 401.589 108.467 402.922 103.4C404.522 98.3333 405.322 93.6667 405.322 89.4C405.322 78.2 401.455 69.6667 393.722 63.8C386.255 57.6667 375.189 54.6 360.522 54.6C348.789 54.6 337.855 56.8667 327.722 61.4C317.855 65.9333 309.455 73 302.522 82.6L255.322 52.2C265.989 36.2 280.922 23.5333 300.122 14.2C319.322 4.86666 341.455 0.199995 366.522 0.199995C387.322 0.199995 405.455 3.66666 420.922 10.6C436.655 17.2667 448.789 26.7333 457.322 39C466.122 51.2667 470.522 65.9333 470.522 83C470.522 92.0667 469.322 101.133 466.922 110.2C464.789 119 460.255 128.333 453.322 138.2C446.655 148.067 436.789 159.133 423.722 171.4L334.122 255.8L321.722 232.2H479.722V285H268.122Z" fill="white" fill-opacity="0.05"/>
</svg>
