<svg width="529" height="290" viewBox="0 0 529 290" fill="none" xmlns="http://www.w3.org/2000/svg">
<path d="M120.6 289.8C97.6667 289.8 77.1333 284.2 59 273C40.8667 261.533 26.6 245 16.2 223.4C5.8 201.8 0.6 175.667 0.6 145C0.6 114.333 5.8 88.2 16.2 66.6C26.6 45 40.8667 28.6 59 17.4C77.1333 5.93333 97.6667 0.199995 120.6 0.199995C143.8 0.199995 164.333 5.93333 182.2 17.4C200.333 28.6 214.6 45 225 66.6C235.4 88.2 240.6 114.333 240.6 145C240.6 175.667 235.4 201.8 225 223.4C214.6 245 200.333 261.533 182.2 273C164.333 284.2 143.8 289.8 120.6 289.8ZM120.6 235C131.533 235 141 231.933 149 225.8C157.267 219.667 163.667 209.933 168.2 196.6C173 183.267 175.4 166.067 175.4 145C175.4 123.933 173 106.733 168.2 93.4C163.667 80.0667 157.267 70.3333 149 64.2C141 58.0666 131.533 55 120.6 55C109.933 55 100.467 58.0666 92.2 64.2C84.2 70.3333 77.8 80.0667 73 93.4C68.4667 106.733 66.2 123.933 66.2 145C66.2 166.067 68.4667 183.267 73 196.6C77.8 209.933 84.2 219.667 92.2 225.8C100.467 231.933 109.933 235 120.6 235ZM268.884 226.2V182.6L400.884 4.99998H468.884L339.684 182.6L308.084 173.4H528.484V226.2H268.884ZM419.684 285V226.2L421.684 173.4V121H482.884V285H419.684Z" fill="white" fill-opacity="0.05"/>
</svg>
