<svg width="51" height="50" viewBox="0 0 51 50" fill="none" xmlns="http://www.w3.org/2000/svg">
<g clip-path="url(#clip0_162_421)">
<path d="M4.25 41.6666H46.75V45.8333H4.25V41.6666ZM8.5 25H12.75V39.5833H8.5V25ZM19.125 25H23.375V39.5833H19.125V25ZM27.625 25H31.875V39.5833H27.625V25ZM38.25 25H42.5V39.5833H38.25V25ZM4.25 14.5833L25.5 4.16663L46.75 14.5833V22.9166H4.25V14.5833ZM25.5 16.6666C26.0636 16.6666 26.6041 16.4471 27.0026 16.0564C27.4011 15.6657 27.625 15.1358 27.625 14.5833C27.625 14.0308 27.4011 13.5009 27.0026 13.1102C26.6041 12.7195 26.0636 12.5 25.5 12.5C24.9364 12.5 24.3959 12.7195 23.9974 13.1102C23.5989 13.5009 23.375 14.0308 23.375 14.5833C23.375 15.1358 23.5989 15.6657 23.9974 16.0564C24.3959 16.4471 24.9364 16.6666 25.5 16.6666Z" fill="white"/>
</g>
<defs>
<clipPath id="clip0_162_421">
<rect width="51" height="50" fill="white"/>
</clipPath>
</defs>
</svg>
